if (_typeface_js && _typeface_js.loadFace) _typeface_js.loadFace({"glyphs":{"0":{"ha":622,"x_min":64,"x_max":572,"o":"m 541 250 q 512 134 541 191 q 318 26 456 26 q 142 105 201 26 l 510 841 q 541 722 541 784 l 541 250 m 125 131 q 94 250 94 188 l 94 722 q 123 838 94 781 q 318 946 180 946 q 494 867 435 946 l 125 131 m 566 953 q 560 970 572 965 q 543 965 548 977 l 507 892 q 318 972 441 972 q 100 848 163 972 q 68 722 68 785 l 68 250 q 112 104 68 173 l 70 19 q 75 1 64 7 q 81 0 78 0 q 93 7 90 0 l 130 80 q 318 0 195 0 q 535 124 472 0 q 568 250 568 187 l 568 722 q 524 868 568 799 l 566 953 z "},"1":{"ha":387,"x_min":64,"x_max":332,"o":"m 319 0 q 306 13 306 0 l 306 928 l 92 713 q 73 713 82 704 q 73 732 64 723 l 310 968 q 324 972 316 975 q 332 960 332 968 l 332 13 q 319 0 332 0 z "},"2":{"ha":621,"x_min":68,"x_max":567,"o":"m 81 0 q 68 13 68 0 l 68 250 q 100 376 68 312 q 317 499 163 499 q 512 608 456 499 q 541 723 541 664 q 512 838 541 782 q 317 946 456 946 q 123 838 179 946 q 94 723 94 782 q 81 709 94 709 q 68 723 68 709 q 100 848 68 785 q 317 972 163 972 q 535 848 472 972 q 567 723 567 785 q 535 597 567 661 q 317 473 472 473 q 123 365 179 473 q 94 250 94 309 l 94 26 l 554 26 q 567 13 567 26 q 554 0 567 0 l 81 0 z "},"3":{"ha":622,"x_min":68,"x_max":567,"o":"m 317 0 q 192 33 255 0 q 68 250 68 95 q 81 262 68 262 q 94 250 94 262 q 202 56 94 111 q 317 26 258 26 q 433 56 376 26 q 541 250 541 111 q 433 444 541 388 q 317 473 376 473 q 304 486 304 473 q 317 499 304 499 q 433 528 376 499 q 541 722 541 585 q 433 917 541 861 q 317 946 376 946 q 202 917 258 946 q 94 722 94 861 q 81 709 94 709 q 68 722 68 709 q 192 940 68 877 q 317 972 255 972 q 443 940 380 972 q 567 722 567 877 q 395 486 567 538 q 509 418 465 465 q 567 250 567 355 q 443 33 567 95 q 317 0 380 0 z "},"4":{"ha":623,"x_min":66,"x_max":568,"o":"m 106 263 l 541 263 l 541 916 l 106 263 m 554 0 q 541 13 541 0 l 541 237 l 81 237 q 69 243 73 237 q 70 257 66 250 l 543 966 q 558 972 549 975 q 568 960 568 969 l 568 13 q 554 0 568 0 z "},"5":{"ha":621,"x_min":68,"x_max":567,"o":"m 81 0 q 68 13 68 0 q 81 26 68 26 l 317 26 q 433 56 376 26 q 541 250 541 111 q 433 444 541 388 q 317 473 376 473 l 81 473 q 68 486 68 473 l 68 959 q 81 972 68 972 l 554 972 q 567 959 567 972 q 554 946 567 946 l 94 946 l 94 499 l 317 499 q 444 467 380 499 q 567 250 567 404 q 444 33 567 95 q 317 0 380 0 l 81 0 z "},"6":{"ha":621,"x_min":68,"x_max":567,"o":"m 94 250 q 123 134 94 191 q 317 26 179 26 q 512 134 456 26 q 541 250 541 191 q 511 365 541 309 q 317 473 456 473 q 122 362 178 473 q 94 250 94 306 m 317 0 q 102 121 165 0 q 68 250 68 184 l 68 722 q 99 846 68 785 q 317 972 161 972 q 536 846 473 972 q 567 722 567 785 q 554 709 567 709 q 541 722 541 709 q 511 838 541 781 q 317 945 456 945 q 122 835 178 945 q 94 722 94 779 l 94 363 q 99 374 96 369 q 317 499 161 499 q 536 374 473 499 q 567 250 567 312 q 534 124 567 187 q 317 0 471 0 z "},"7":{"ha":623,"x_min":64,"x_max":570,"o":"m 81 0 q 75 1 78 0 q 70 19 64 7 l 533 946 l 81 946 q 68 960 68 946 q 81 972 68 972 l 555 972 q 566 966 562 972 q 566 954 570 960 l 93 7 q 81 0 90 0 z "},"8":{"ha":622,"x_min":68,"x_max":567,"o":"m 317 946 q 202 917 258 946 q 94 723 94 861 q 202 528 94 584 q 317 499 258 499 q 433 528 377 500 q 541 723 541 585 q 433 917 541 861 q 317 946 377 946 m 317 473 q 202 444 258 473 q 94 250 94 388 q 202 55 94 111 q 317 26 258 26 q 433 56 377 26 q 541 250 541 111 q 433 444 541 388 q 317 473 377 473 m 317 0 q 192 33 255 0 q 68 250 68 95 q 193 469 68 406 q 239 486 215 479 q 126 555 169 508 q 68 723 68 618 q 193 941 68 879 q 317 972 255 972 q 444 940 380 972 q 567 723 567 878 q 395 486 567 538 q 509 418 466 465 q 567 250 567 355 q 444 33 567 95 q 317 0 380 0 z "},"9":{"ha":622,"x_min":68,"x_max":567,"o":"m 317 946 q 123 838 179 946 q 94 723 94 782 q 123 608 94 664 q 317 499 179 499 q 512 608 456 499 q 541 723 541 663 q 512 838 541 782 q 317 946 456 946 m 317 0 q 100 124 163 0 q 68 250 68 187 q 81 263 68 263 q 94 250 94 263 q 123 134 94 191 q 317 26 179 26 q 512 134 456 26 q 541 250 541 191 l 541 610 q 317 473 480 473 q 100 597 163 473 q 68 723 68 661 q 100 848 68 785 q 317 972 163 972 q 536 847 473 972 q 567 723 567 785 l 567 250 q 535 124 567 187 q 317 0 472 0 z "}," ":{"ha":345,"x_min":0,"x_max":0,"o":""},"!":{"ha":149,"x_min":64,"x_max":99,"o":"m 81 237 q 68 250 68 237 l 68 960 q 81 972 68 972 q 94 960 94 972 l 94 250 q 81 237 94 237 m 99 18 q 81 0 99 0 q 64 18 64 0 q 81 35 64 35 q 99 18 99 35 z "},"\"":{"ha":281,"x_min":68,"x_max":227,"o":"m 79 736 q 71 739 75 736 q 68 747 68 743 l 68 961 q 71 969 68 966 q 79 972 75 972 q 88 969 85 972 q 92 961 92 966 l 92 747 q 88 739 92 743 q 79 736 85 736 m 215 736 q 207 739 210 736 q 203 747 203 743 l 203 961 q 207 969 203 966 q 215 972 210 972 q 224 969 220 972 q 227 961 227 966 l 227 747 q 224 739 227 743 q 215 736 220 736 z "},"#":{"ha":621,"x_min":68,"x_max":567,"o":"m 422 263 l 212 263 l 212 709 l 422 709 l 422 263 m 449 263 l 449 709 l 554 709 q 567 723 567 709 q 554 736 567 736 l 449 736 l 449 960 q 436 972 449 972 q 422 960 422 972 l 422 736 l 212 736 l 212 960 q 199 972 212 972 q 186 960 186 972 l 186 736 l 81 736 q 68 723 68 736 q 81 709 68 709 l 186 709 l 186 263 l 81 263 q 68 250 68 263 q 81 237 68 237 l 186 237 l 186 13 q 199 0 186 0 q 212 13 212 0 l 212 237 l 422 237 l 422 13 q 436 0 422 0 q 449 13 449 0 l 449 237 l 554 237 q 567 250 567 237 q 554 263 567 263 l 449 263 z "},"$":{"ha":621,"x_min":68,"x_max":567,"o":"m 329 469 q 452 428 399 463 q 538 247 538 370 q 452 66 538 125 q 329 26 399 31 l 329 469 m 303 496 q 180 536 233 501 q 94 718 94 595 q 180 898 94 840 q 303 939 233 933 l 303 496 m 330 946 l 554 946 q 567 960 567 946 q 554 972 567 972 l 330 972 l 330 1196 q 317 1209 330 1209 q 304 1196 304 1209 l 304 972 q 167 926 226 965 q 68 723 68 860 q 167 520 68 586 q 304 474 226 481 l 304 26 l 81 26 q 68 14 68 26 q 81 1 68 1 l 304 1 l 304 -223 q 317 -236 304 -236 q 330 -223 330 -236 l 330 1 q 468 47 409 8 q 567 250 567 113 q 468 453 567 387 q 330 499 409 492 l 330 946 z "},"%":{"ha":622,"x_min":64,"x_max":572,"o":"m 81 0 q 75 1 78 0 q 70 19 64 7 l 543 965 q 560 970 549 977 q 566 953 572 965 l 93 7 q 81 0 90 0 m 450 213 q 383 185 411 213 q 355 118 355 157 q 383 52 355 79 q 450 24 411 24 q 517 52 489 24 q 545 118 545 79 q 517 185 545 157 q 450 213 489 213 m 450 0 q 366 35 401 0 q 332 118 332 69 q 366 202 332 167 q 450 237 401 237 q 533 202 498 237 q 568 118 568 167 q 533 35 568 69 q 450 0 498 0 m 186 949 q 119 921 147 949 q 92 854 92 893 q 119 787 92 815 q 186 760 147 760 q 253 787 225 760 q 281 854 281 815 q 253 921 281 893 q 186 949 225 949 m 186 736 q 102 770 137 736 q 68 854 68 805 q 102 938 68 903 q 186 972 137 972 q 269 938 235 972 q 304 854 304 903 q 269 770 304 805 q 186 736 235 736 z "},"&":{"ha":621,"x_min":68,"x_max":567,"o":"m 541 250 q 511 138 541 190 q 433 58 482 88 q 330 250 330 115 q 433 441 330 384 q 511 361 482 411 q 541 250 541 309 m 317 26 q 159 92 225 26 q 94 250 94 157 q 159 408 94 342 q 317 473 225 473 q 406 454 364 473 q 304 250 304 389 q 406 45 304 110 q 317 26 364 26 m 94 722 q 159 880 94 815 q 317 946 225 946 q 475 880 410 946 q 541 722 541 815 q 475 565 541 630 q 317 499 410 499 q 159 565 225 499 q 94 722 94 630 m 567 486 q 554 499 567 499 q 434 470 496 499 q 397 486 416 480 q 519 576 472 511 q 567 722 567 642 q 494 899 567 826 q 317 972 420 972 q 141 899 214 972 q 68 722 68 826 q 116 576 68 642 q 237 486 163 511 q 116 397 163 461 q 68 250 68 331 q 141 73 68 146 q 317 0 214 0 q 434 29 380 0 q 554 0 496 0 q 567 13 567 0 q 554 26 567 26 q 460 45 509 26 q 567 250 567 120 q 460 454 567 379 q 554 473 509 473 q 567 486 567 473 z "},"'":{"ha":146,"x_min":68,"x_max":92,"o":"m 79 736 q 71 739 75 736 q 68 747 68 743 l 68 961 q 71 969 68 966 q 79 972 75 972 q 88 969 85 972 q 92 961 92 966 l 92 747 q 88 739 92 743 q 79 736 85 736 z "},"(":{"ha":385,"x_min":68,"x_max":331,"o":"m 317 0 q 192 33 255 0 q 68 250 68 96 l 68 723 q 192 941 68 878 q 317 972 255 972 q 331 960 331 972 q 317 947 331 947 q 202 918 258 946 q 94 723 94 861 l 94 250 q 202 56 94 111 q 317 26 258 26 q 331 13 331 26 q 317 0 331 0 z "},")":{"ha":385,"x_min":68,"x_max":331,"o":"m 81 0 q 68 13 68 0 q 81 26 68 26 q 196 56 140 26 q 304 250 304 111 l 304 723 q 196 918 304 861 q 81 947 140 946 q 68 960 68 947 q 81 972 68 972 q 207 941 143 972 q 331 723 331 878 l 331 250 q 207 33 331 96 q 81 0 143 0 z "},"*":{"ha":359,"x_min":68,"x_max":304,"o":"m 301 756 q 304 747 304 753 q 301 739 304 743 q 293 736 298 736 q 284 739 288 736 l 198 825 l 198 747 q 195 739 198 743 q 186 736 191 736 q 178 739 181 736 q 174 747 174 743 l 174 825 l 88 739 q 79 736 85 736 q 71 739 75 736 q 68 747 68 743 q 71 756 68 753 l 157 842 l 79 842 q 71 846 75 842 q 68 854 68 849 q 71 863 68 859 q 79 866 75 866 l 157 866 l 71 952 q 68 961 68 956 q 71 969 68 966 q 79 972 75 972 q 88 969 85 972 l 174 883 l 174 961 q 178 969 174 966 q 186 972 181 972 q 195 969 191 972 q 198 961 198 966 l 198 883 l 284 969 q 293 972 288 972 q 301 969 298 972 q 304 961 304 966 q 301 952 304 956 l 215 866 l 293 866 q 301 863 298 866 q 304 854 304 859 q 301 846 304 849 q 293 842 298 842 l 215 842 l 301 756 z "},"+":{"ha":621,"x_min":68,"x_max":567,"o":"m 567 486 q 563 477 567 481 q 554 473 559 473 l 330 473 l 330 250 q 327 241 330 244 q 317 237 323 237 q 308 241 312 237 q 304 250 304 244 l 304 473 l 81 473 q 72 477 75 473 q 68 486 68 481 q 72 496 68 492 q 81 499 75 499 l 304 499 l 304 723 q 308 732 304 728 q 317 736 312 736 q 327 732 323 736 q 330 723 330 728 l 330 499 l 554 499 q 563 496 559 499 q 567 486 567 492 z "},",":{"ha":145,"x_min":68,"x_max":92,"o":"m 79 -236 q 71 -233 75 -236 q 68 -224 68 -229 l 68 -12 q 71 -3 68 -7 q 79 0 75 0 q 88 -3 85 0 q 92 -12 92 -7 l 92 -224 q 88 -233 92 -229 q 79 -236 85 -236 z "},"-":{"ha":622,"x_min":68,"x_max":567,"o":"m 81 475 q 72 479 75 475 q 68 488 68 482 q 72 497 68 494 q 81 501 75 501 l 554 501 q 563 497 559 501 q 567 488 567 494 q 563 479 567 482 q 554 475 559 475 l 81 475 z "},".":{"ha":153,"x_min":64,"x_max":99,"o":"m 99 18 q 81 0 99 0 q 64 18 64 0 q 81 35 64 35 q 99 18 99 35 z "},"/":{"ha":622,"x_min":64,"x_max":572,"o":"m 81 0 q 75 1 78 0 q 70 19 64 7 l 543 965 q 560 970 549 977 q 566 953 572 965 l 93 7 q 81 0 90 0 z "},":":{"ha":157,"x_min":68,"x_max":103,"o":"m 103 736 q 85 718 103 718 q 68 736 68 718 q 85 753 68 753 q 103 736 103 753 m 103 237 q 85 219 103 219 q 68 237 68 219 q 85 254 68 254 q 103 237 103 254 z "},";":{"ha":158,"x_min":68,"x_max":103,"o":"m 103 736 q 85 718 103 718 q 68 736 68 718 q 85 753 68 753 q 103 736 103 753 m 79 0 q 71 3 75 0 q 68 12 68 7 l 68 224 q 71 233 68 229 q 79 236 75 236 q 88 233 85 236 q 92 224 92 229 l 92 12 q 88 3 92 7 q 79 0 85 0 z "},"<":{"ha":623,"x_min":63,"x_max":573,"o":"m 554 0 q 545 4 549 0 l 73 477 q 73 495 63 486 l 545 968 q 564 968 554 977 q 564 949 573 958 l 100 486 l 564 22 q 564 4 573 13 q 554 0 559 0 z "},"=":{"ha":623,"x_min":68,"x_max":567,"o":"m 81 610 q 72 614 75 610 q 68 624 68 618 q 72 633 68 629 q 81 637 75 637 l 554 637 q 563 633 559 637 q 567 624 567 629 q 563 614 567 618 q 554 610 559 610 l 81 610 m 81 339 q 72 343 75 339 q 68 353 68 347 q 72 361 68 358 q 81 366 75 366 l 554 366 q 563 361 559 366 q 567 353 567 358 q 563 343 567 347 q 554 339 559 339 l 81 339 z "},">":{"ha":688,"x_min":64,"x_max":572,"o":"m 82 0 q 73 4 77 0 q 73 22 64 13 l 534 486 l 73 949 q 73 968 64 958 q 92 968 82 977 l 562 495 q 562 477 572 486 l 92 4 q 82 0 87 0 z "},"?":{"ha":621,"x_min":68,"x_max":567,"o":"m 317 237 q 304 250 304 237 l 304 486 q 317 500 304 499 q 433 528 376 500 q 541 723 541 585 q 433 918 541 861 q 317 946 376 946 q 202 917 258 946 q 94 723 94 861 q 81 710 94 710 q 68 723 68 710 q 192 940 68 878 q 317 972 255 972 q 444 940 380 972 q 567 723 567 878 q 468 520 567 586 q 331 474 409 481 l 331 250 q 317 237 331 237 m 335 18 q 317 0 335 0 q 300 18 300 0 q 317 35 300 35 q 335 18 335 35 z "},"@":{"ha":622,"x_min":68,"x_max":567,"o":"m 436 709 q 345 659 371 709 q 331 604 331 632 l 331 368 q 345 314 331 340 q 436 263 371 263 q 527 314 500 263 q 541 368 541 340 l 541 606 q 524 664 540 638 q 436 709 497 709 m 317 0 q 100 124 163 0 q 68 250 68 187 l 68 723 q 99 847 68 785 q 317 972 161 972 q 536 847 473 972 q 567 723 567 785 l 567 606 q 567 604 567 605 l 567 250 q 554 237 567 237 q 541 250 541 237 l 541 286 q 436 237 506 237 q 321 302 355 237 q 304 368 304 335 l 304 604 q 321 671 304 637 q 436 736 355 736 l 436 736 q 541 686 506 736 l 541 723 q 512 838 541 782 q 317 946 456 946 q 122 836 178 946 q 94 723 94 779 l 94 250 q 123 134 94 191 q 317 26 179 26 l 553 26 q 567 13 567 26 q 554 0 567 0 l 317 0 z "},"A":{"ha":623,"x_min":66,"x_max":571,"o":"m 217 501 l 319 909 l 421 501 l 217 501 m 450 489 l 450 489 q 450 490 450 490 l 331 963 q 318 972 329 972 q 306 963 308 972 l 187 490 q 187 489 187 490 l 187 489 l 69 16 q 79 1 66 3 q 81 0 80 0 q 94 10 92 0 l 210 473 l 427 473 l 542 10 q 555 0 545 0 q 558 1 556 0 q 568 16 571 3 l 450 489 z "},"B":{"ha":622,"x_min":68,"x_max":568,"o":"m 94 499 l 317 499 q 433 528 376 500 q 541 723 541 585 q 433 918 541 861 q 317 946 376 946 l 94 946 l 94 499 m 94 26 l 317 26 q 433 56 376 26 q 541 250 541 111 q 433 444 541 388 q 317 473 376 473 l 94 473 l 94 26 m 81 0 q 68 13 68 0 l 68 960 q 81 972 68 972 l 317 972 q 444 941 380 972 q 568 723 568 878 q 395 486 568 538 q 509 418 466 465 q 568 250 568 355 q 444 33 568 96 q 317 0 380 0 l 81 0 z "},"C":{"ha":621,"x_min":68,"x_max":567,"o":"m 317 0 q 100 124 163 0 q 68 250 68 187 l 68 723 q 100 848 68 785 q 317 972 163 972 l 553 972 q 567 960 567 972 q 554 946 567 946 l 317 946 q 123 838 179 946 q 94 723 94 782 l 94 250 q 123 134 94 191 q 317 26 179 26 l 553 26 q 567 13 567 26 q 554 0 567 0 l 317 0 z "},"D":{"ha":621,"x_min":68,"x_max":567,"o":"m 94 26 l 317 26 q 433 56 376 26 q 541 250 541 111 l 541 722 q 433 917 541 861 q 317 946 376 946 l 94 946 l 94 26 m 81 0 q 68 13 68 0 l 68 959 q 81 972 68 972 l 317 972 q 443 940 380 972 q 567 722 567 877 l 567 250 q 443 33 567 95 q 317 0 380 0 l 81 0 z "},"E":{"ha":621,"x_min":68,"x_max":567,"o":"m 81 0 q 68 13 68 0 l 68 960 q 81 972 68 972 l 554 972 q 567 960 567 972 q 554 946 567 946 l 94 946 l 94 499 l 317 499 q 331 486 331 499 q 317 473 331 473 l 94 473 l 94 26 l 554 26 q 567 13 567 26 q 554 0 567 0 l 81 0 z "},"F":{"ha":621,"x_min":67,"x_max":566,"o":"m 80 0 q 67 13 67 0 l 67 960 q 80 972 67 972 l 553 972 q 566 960 566 972 q 553 946 566 946 l 94 946 l 94 499 l 317 499 q 330 486 330 499 q 317 473 330 473 l 94 473 l 94 13 q 80 0 94 0 z "},"G":{"ha":623,"x_min":68,"x_max":567,"o":"m 317 0 q 100 124 163 0 q 68 250 68 187 l 68 723 q 100 848 68 785 q 317 972 163 972 l 553 972 q 567 960 567 972 q 554 946 567 946 l 317 946 q 123 838 179 946 q 94 723 94 782 l 94 250 q 123 134 94 191 q 317 26 179 26 l 541 26 l 541 473 l 317 473 q 304 486 304 473 q 317 499 304 499 l 554 499 q 567 486 567 499 l 567 13 q 554 0 567 0 l 317 0 z "},"H":{"ha":621,"x_min":68,"x_max":567,"o":"m 554 0 q 541 13 541 0 l 541 473 l 94 473 l 94 13 q 81 0 94 0 q 68 13 68 0 l 68 960 q 81 972 68 972 q 94 960 94 972 l 94 499 l 541 499 l 541 960 q 554 972 541 972 q 567 960 567 972 l 567 13 q 554 0 567 0 z "},"I":{"ha":610,"x_min":68,"x_max":567,"o":"m 81 0 q 68 13 68 0 q 81 26 68 26 l 304 26 l 304 946 l 81 946 q 68 960 68 946 q 81 972 68 972 l 554 972 q 567 960 567 972 q 554 946 567 946 l 331 946 l 331 26 l 554 26 q 567 13 567 26 q 554 0 567 0 l 81 0 z "},"J":{"ha":623,"x_min":68,"x_max":568,"o":"m 81 0 q 68 13 68 0 q 81 26 68 26 l 317 26 q 433 56 376 26 q 541 250 541 111 l 541 947 l 81 947 q 68 960 68 947 q 81 972 68 972 l 554 972 q 568 960 568 972 l 568 250 q 444 33 568 95 q 317 0 380 0 l 81 0 z "},"K":{"ha":621,"x_min":68,"x_max":572,"o":"m 553 0 q 545 4 548 0 l 94 454 l 94 13 q 81 0 94 0 q 68 13 68 0 l 68 958 q 81 971 68 971 q 94 958 94 971 l 94 517 l 545 968 q 563 968 553 977 q 563 949 572 958 l 100 486 l 563 22 q 567 13 567 18 q 563 4 567 7 q 553 0 559 0 z "},"L":{"ha":621,"x_min":68,"x_max":567,"o":"m 81 0 q 68 13 68 0 l 68 959 q 81 972 68 972 q 94 959 94 972 l 94 26 l 554 26 q 567 13 567 26 q 554 0 567 0 l 81 0 z "},"M":{"ha":622,"x_min":68,"x_max":567,"o":"m 554 0 q 541 13 541 0 l 541 916 l 328 597 q 317 591 325 591 q 307 597 310 591 l 94 916 l 94 13 q 81 0 94 0 q 68 13 68 0 l 68 959 q 77 972 68 968 q 92 966 86 975 l 317 628 l 543 966 q 557 972 549 975 q 567 959 567 968 l 567 13 q 554 0 567 0 z "},"N":{"ha":621,"x_min":68,"x_max":567,"o":"m 554 0 q 542 7 546 0 l 94 903 l 94 13 q 81 0 94 0 q 68 13 68 0 l 68 959 q 78 972 68 969 q 93 965 88 974 l 541 68 l 541 959 q 554 972 541 972 q 567 959 567 972 l 567 13 q 557 1 567 3 q 554 0 555 0 z "},"O":{"ha":623,"x_min":68,"x_max":567,"o":"m 317 946 q 123 838 179 946 q 94 723 94 782 l 94 250 q 123 134 94 191 q 317 26 179 26 q 512 134 456 26 q 541 250 541 191 l 541 723 q 512 838 541 782 q 317 946 456 946 m 317 0 q 100 124 163 0 q 68 250 68 187 l 68 723 q 100 848 68 785 q 317 972 163 972 q 535 848 472 972 q 567 723 567 785 l 567 250 q 535 124 567 187 q 317 0 472 0 z "},"P":{"ha":621,"x_min":68,"x_max":567,"o":"m 94 499 l 317 499 q 433 528 376 500 q 541 723 541 585 q 433 917 541 861 q 317 946 376 946 l 94 946 l 94 499 m 81 0 q 68 13 68 0 l 68 960 q 81 972 68 972 l 317 972 q 444 940 380 972 q 567 723 567 878 q 444 505 567 568 q 317 473 380 473 l 94 473 l 94 13 q 81 0 94 0 z "},"Q":{"ha":623,"x_min":68,"x_max":567,"o":"m 436 54 q 345 171 371 91 q 331 250 331 214 q 317 263 331 263 q 304 250 304 263 q 318 171 304 216 q 408 41 344 85 q 317 26 368 26 q 123 134 179 26 q 94 250 94 191 l 94 723 q 123 838 94 782 q 317 946 179 946 q 512 838 456 946 q 541 723 541 782 l 541 250 q 527 171 541 214 q 436 54 500 91 m 567 723 q 535 848 567 785 q 317 972 472 972 q 100 848 163 972 q 68 723 68 785 l 68 250 q 100 124 68 187 q 317 0 163 0 q 436 24 385 0 q 554 0 486 0 q 567 13 567 0 q 554 26 567 26 q 464 41 504 26 q 553 171 528 85 q 567 250 567 216 l 567 723 z "},"R":{"ha":624,"x_min":68,"x_max":573,"o":"m 94 500 l 317 500 q 433 528 376 500 q 541 723 541 585 q 433 918 541 861 q 317 947 376 947 l 94 947 l 94 500 m 554 0 q 545 4 549 0 l 94 454 l 94 13 q 81 0 94 0 q 68 13 68 0 l 68 960 q 81 972 68 972 l 317 972 q 444 941 380 972 q 568 723 568 878 q 444 505 568 568 q 317 473 380 473 l 113 473 l 564 22 q 564 4 573 13 q 554 0 559 0 z "},"S":{"ha":618,"x_min":68,"x_max":567,"o":"m 81 0 q 68 13 68 0 q 81 26 68 26 l 317 26 q 433 56 376 26 q 541 250 541 111 q 433 444 541 388 q 317 473 376 473 q 192 505 255 473 q 68 723 68 568 q 192 940 68 877 q 317 972 255 972 l 554 972 q 567 959 567 972 q 554 946 567 946 l 317 946 q 202 917 258 946 q 94 723 94 861 q 202 528 94 585 q 317 499 258 500 q 444 467 380 499 q 567 250 567 404 q 444 33 567 95 q 317 0 380 0 l 81 0 z "},"T":{"ha":622,"x_min":68,"x_max":567,"o":"m 317 0 q 304 13 304 0 l 304 946 l 81 946 q 68 960 68 946 q 81 972 68 972 l 554 972 q 567 960 567 972 q 554 946 567 946 l 331 946 l 331 13 q 317 0 331 0 z "},"U":{"ha":610,"x_min":68,"x_max":567,"o":"m 317 0 q 100 124 163 0 q 68 250 68 187 l 68 958 q 81 972 68 972 q 94 958 94 972 l 94 250 q 123 134 94 191 q 317 26 179 26 q 511 134 456 26 q 541 250 541 191 l 541 958 q 553 972 541 972 q 567 958 567 972 l 567 250 q 534 124 567 187 q 317 0 471 0 z "},"V":{"ha":621,"x_min":65,"x_max":570,"o":"m 317 0 q 304 10 307 0 l 68 956 q 78 972 65 968 q 94 962 91 975 l 317 67 l 541 962 q 557 972 545 975 q 567 956 570 968 l 330 10 q 317 0 328 0 z "},"W":{"ha":1095,"x_min":66,"x_max":1044,"o":"m 791 0 q 779 10 781 0 l 555 905 l 331 10 q 318 0 328 0 q 305 10 308 0 l 69 956 q 79 972 66 968 q 94 962 92 975 l 318 67 l 542 962 q 555 972 545 972 q 568 962 565 972 l 791 67 l 1015 962 q 1031 972 1018 975 q 1040 956 1044 968 l 804 10 q 791 0 801 0 z "},"X":{"ha":622,"x_min":64,"x_max":572,"o":"m 554 1 q 543 8 546 1 l 317 457 l 93 8 q 75 2 87 -4 q 68 14 68 5 q 70 20 68 17 l 303 486 l 70 953 q 75 970 64 965 q 93 965 87 977 l 317 515 l 543 965 q 560 970 548 977 q 566 953 572 965 l 332 486 l 566 20 q 567 14 567 17 q 560 2 567 5 q 554 1 557 1 z "},"Y":{"ha":621,"x_min":64,"x_max":572,"o":"m 318 0 q 304 13 304 0 l 304 483 l 70 953 q 75 970 64 965 q 93 965 87 977 l 318 515 l 543 965 q 560 970 549 977 q 566 953 572 965 l 331 483 l 331 13 q 318 0 331 0 z "},"Z":{"ha":620,"x_min":66,"x_max":569,"o":"m 81 0 q 70 6 73 0 q 69 19 66 12 l 532 946 l 81 946 q 68 960 68 946 q 81 972 68 972 l 554 972 q 565 966 562 972 q 566 954 569 960 l 102 26 l 554 26 q 567 13 567 26 q 554 0 567 0 l 81 0 z "},"[":{"ha":385,"x_min":68,"x_max":331,"o":"m 81 0 q 68 13 68 0 l 68 960 q 81 972 68 972 l 317 972 q 331 960 331 972 q 317 946 331 946 l 94 946 l 94 26 l 317 26 q 331 13 331 26 q 317 0 331 0 l 81 0 z "},"\\":{"ha":621,"x_min":64,"x_max":570,"o":"m 553 0 q 541 7 545 0 l 70 953 q 75 970 64 965 q 93 965 87 977 l 564 19 q 559 1 570 7 q 553 0 556 0 z "},"]":{"ha":385,"x_min":68,"x_max":331,"o":"m 81 0 q 68 13 68 0 q 81 26 68 26 l 304 26 l 304 946 l 81 946 q 68 960 68 946 q 81 972 68 972 l 317 972 q 331 960 331 972 l 331 13 q 317 0 331 0 l 81 0 z "},"^":{"ha":610,"x_min":67,"x_max":557,"o":"m 543 486 q 532 492 535 486 l 312 932 l 92 492 q 85 486 90 488 q 75 487 80 484 q 68 494 71 489 q 70 504 67 499 l 300 966 q 312 972 304 972 q 323 966 320 972 l 555 504 q 555 494 557 499 q 549 487 553 489 q 543 486 546 486 z "},"_":{"ha":622,"x_min":68,"x_max":567,"o":"m 81 0 q 72 4 75 0 q 68 14 68 7 q 72 22 68 19 q 81 26 75 26 l 554 26 q 563 22 559 26 q 567 14 567 19 q 563 4 567 7 q 554 0 559 0 l 81 0 z "},"`":{"ha":694,"x_min":0,"x_max":0,"o":""},"a":{"ha":622,"x_min":68,"x_max":567,"o":"m 317 26 q 123 134 179 26 q 94 250 94 191 q 123 365 94 309 q 317 473 179 473 q 512 365 456 473 q 541 250 541 309 q 512 134 541 191 q 317 26 456 26 m 317 736 q 100 612 163 736 q 68 486 68 549 q 81 473 68 473 q 94 486 94 473 q 123 602 94 545 q 317 709 179 709 q 512 602 456 709 q 541 486 541 545 l 541 363 q 317 499 480 499 q 100 376 163 499 q 68 250 68 312 q 100 124 68 187 q 317 0 163 0 q 541 137 480 0 l 541 13 q 554 0 541 0 q 567 13 567 0 l 567 486 q 535 612 567 549 q 317 736 472 736 z "},"b":{"ha":621,"x_min":68,"x_max":567,"o":"m 541 250 q 512 134 541 191 q 317 26 456 26 q 123 134 179 26 q 94 250 94 191 l 94 486 q 123 602 94 545 q 317 709 179 709 q 512 602 456 709 q 541 486 541 545 l 541 250 m 317 736 q 94 599 155 736 l 94 960 q 81 972 94 972 q 68 960 68 972 l 68 13 q 81 0 68 0 q 94 13 94 0 l 94 137 q 317 0 155 0 q 535 124 472 0 q 567 250 567 187 l 567 486 q 535 612 567 549 q 317 736 472 736 z "},"c":{"ha":622,"x_min":68,"x_max":567,"o":"m 317 0 q 100 124 163 0 q 68 250 68 187 l 68 486 q 100 612 68 548 q 317 736 163 736 q 534 612 472 736 q 567 486 567 548 q 554 473 567 473 q 541 486 541 473 q 511 601 541 545 q 317 709 456 709 q 123 601 179 709 q 94 486 94 545 l 94 250 q 123 134 94 191 q 317 26 179 26 q 512 134 456 26 q 541 250 541 191 q 554 262 541 262 q 567 250 567 262 q 534 124 567 187 q 317 0 472 0 z "},"d":{"ha":621,"x_min":68,"x_max":567,"o":"m 541 250 q 512 134 541 191 q 317 26 456 26 q 123 134 179 26 q 94 250 94 191 l 94 486 q 123 602 94 545 q 317 709 179 709 q 512 602 456 709 q 541 486 541 545 l 541 250 m 554 972 q 541 960 541 972 l 541 599 q 317 736 480 736 q 100 612 163 736 q 68 486 68 549 l 68 250 q 100 124 68 187 q 317 0 163 0 q 541 137 480 0 l 541 13 q 554 0 541 0 q 567 13 567 0 l 567 960 q 554 972 567 972 z "},"e":{"ha":622,"x_min":68,"x_max":567,"o":"m 540 499 q 499 623 534 570 q 317 709 441 709 q 136 623 194 709 q 95 499 100 570 l 540 499 m 317 0 q 100 124 163 0 q 68 250 68 187 l 68 486 q 102 614 68 552 q 317 736 165 736 q 534 612 472 736 q 567 486 567 548 q 554 473 567 473 l 94 473 l 94 250 q 123 134 94 191 q 317 26 179 26 q 512 134 456 26 q 541 250 541 191 q 554 262 541 262 q 567 250 567 262 q 534 124 567 187 q 317 0 472 0 z "},"f":{"ha":385,"x_min":68,"x_max":331,"o":"m 331 486 q 317 473 331 473 l 94 473 l 94 13 q 81 0 94 0 q 68 13 68 0 l 68 723 q 192 940 68 877 q 317 972 255 972 q 331 960 331 972 q 317 946 331 946 q 202 917 258 946 q 94 723 94 861 l 94 499 l 317 499 q 331 486 331 499 z "},"g":{"ha":621,"x_min":68,"x_max":567,"o":"m 541 252 q 511 136 541 193 q 317 28 456 28 l 317 15 l 317 28 q 123 136 179 28 q 94 252 94 193 l 94 488 q 123 603 94 547 q 317 711 179 711 q 511 603 455 711 q 541 488 541 547 l 541 252 m 554 736 q 541 723 541 736 l 541 599 q 317 736 480 736 q 100 612 163 736 q 68 486 68 549 l 68 250 q 100 124 68 188 q 317 0 163 1 l 318 0 q 541 137 480 0 l 541 14 q 511 -102 541 -45 q 317 -210 456 -210 q 123 -102 179 -210 q 94 14 94 -45 q 81 26 94 26 q 68 14 68 26 q 100 -113 68 -49 q 317 -236 163 -236 q 534 -113 472 -236 q 567 14 567 -49 l 567 723 q 554 736 567 736 z "},"h":{"ha":621,"x_min":68,"x_max":567,"o":"m 554 0 q 541 13 541 0 l 541 486 q 512 602 541 545 q 317 709 456 709 q 123 602 179 709 q 94 486 94 545 l 94 13 q 81 0 94 0 q 68 13 68 0 l 68 960 q 81 972 68 972 q 94 960 94 972 l 94 600 q 317 736 155 736 q 535 612 472 736 q 567 486 567 549 l 567 13 q 554 0 567 0 z "},"i":{"ha":149,"x_min":63,"x_max":98,"o":"m 81 0 q 68 14 68 0 l 68 723 q 81 736 68 736 q 94 723 94 736 l 94 14 q 81 0 94 0 m 98 954 q 81 937 98 937 q 63 954 63 937 q 81 972 63 972 q 98 954 98 972 z "},"j":{"ha":385,"x_min":68,"x_max":336,"o":"m 81 -236 q 68 -222 68 -236 q 81 -210 68 -210 q 196 -180 140 -210 q 304 14 304 -125 l 304 723 q 317 736 304 736 q 330 723 330 736 l 330 14 q 207 -203 330 -140 q 81 -236 143 -236 m 336 955 q 317 937 336 937 q 300 955 300 937 q 317 972 300 972 q 336 955 336 972 z "},"k":{"ha":621,"x_min":68,"x_max":572,"o":"m 566 19 q 559 1 572 7 q 554 0 557 0 q 542 7 546 0 l 314 464 l 94 244 l 94 13 q 81 0 94 0 q 68 13 68 0 l 68 959 q 81 972 68 972 q 94 959 94 972 l 94 281 l 309 496 l 545 732 q 563 732 554 741 q 563 713 572 722 l 334 484 l 566 19 z "},"l":{"ha":149,"x_min":68,"x_max":94,"o":"m 81 0 q 68 13 68 0 l 68 960 q 81 972 68 972 q 94 960 94 972 l 94 13 q 81 0 94 0 z "},"m":{"ha":1095,"x_min":68,"x_max":1040,"o":"m 1040 13 q 1027 0 1040 0 q 1014 13 1014 0 l 1014 486 q 985 602 1014 545 q 791 709 929 709 q 596 602 652 709 q 567 486 567 545 l 567 13 q 554 0 567 0 q 541 13 541 0 l 541 486 q 512 602 541 545 q 317 709 456 709 q 123 602 179 709 q 94 486 94 545 l 94 13 q 81 0 94 0 q 68 13 68 0 l 68 723 q 81 736 68 736 q 94 723 94 736 l 94 599 q 317 736 155 736 q 486 677 422 736 q 554 564 533 634 q 622 677 575 634 q 791 736 686 736 q 1008 612 945 736 q 1040 486 1040 549 l 1040 13 z "},"n":{"ha":621,"x_min":68,"x_max":567,"o":"m 567 13 q 554 0 567 0 q 541 13 541 0 l 541 486 q 512 602 541 545 q 317 709 456 709 q 123 602 179 709 q 94 486 94 545 l 94 13 q 81 0 94 0 q 68 13 68 0 l 68 723 q 81 736 68 736 q 94 723 94 736 l 94 599 q 317 736 155 736 q 535 612 472 736 q 567 486 567 549 l 567 13 z "},"o":{"ha":622,"x_min":68,"x_max":567,"o":"m 317 709 q 123 602 179 709 q 94 486 94 545 l 94 250 q 123 134 94 191 q 317 26 179 26 q 512 134 456 26 q 541 250 541 191 l 541 486 q 512 602 541 545 q 317 709 456 709 m 317 0 q 100 124 163 0 q 68 250 68 187 l 68 486 q 100 612 68 549 q 317 736 163 736 q 535 612 472 736 q 567 486 567 549 l 567 250 q 535 124 567 187 q 317 0 472 0 z "},"p":{"ha":621,"x_min":68,"x_max":567,"o":"m 541 250 q 512 135 541 191 q 317 26 456 26 q 123 135 179 26 q 94 250 94 191 l 94 486 q 123 602 94 546 q 317 710 179 710 q 512 602 456 710 q 541 486 541 545 l 541 250 m 317 736 q 94 600 155 736 l 94 723 q 81 736 94 736 q 68 723 68 736 l 68 -223 q 81 -236 68 -236 q 94 -223 94 -236 l 94 137 q 317 1 155 1 q 534 124 472 1 q 567 250 567 188 l 567 486 q 534 612 567 549 q 317 736 472 736 z "},"q":{"ha":621,"x_min":68,"x_max":567,"o":"m 541 250 q 512 134 541 191 q 317 26 456 26 q 123 134 179 26 q 94 250 94 191 l 94 486 q 123 601 94 545 q 317 709 179 709 q 511 601 456 709 q 541 486 541 545 l 541 250 m 554 736 q 541 722 541 736 l 541 599 q 317 736 480 736 q 100 612 163 736 q 68 486 68 548 l 68 250 q 100 124 68 187 q 317 0 163 0 q 541 137 480 0 l 541 -223 q 554 -236 541 -236 q 567 -223 567 -236 l 567 722 q 554 736 567 736 z "},"r":{"ha":621,"x_min":68,"x_max":567,"o":"m 567 486 q 554 473 567 473 q 541 486 541 473 q 512 601 541 545 q 317 709 456 709 q 123 601 179 709 q 94 486 94 545 l 94 13 q 81 0 94 0 q 68 13 68 0 l 68 723 q 81 736 68 736 q 94 723 94 736 l 94 599 q 317 736 155 736 q 535 612 472 736 q 567 486 567 549 z "},"s":{"ha":621,"x_min":68,"x_max":567,"o":"m 317 0 q 100 124 163 0 q 68 250 68 187 q 81 263 68 262 q 94 250 94 263 q 123 134 94 191 q 317 26 179 26 q 503 119 445 26 q 541 241 536 173 l 75 475 q 68 486 68 478 q 100 612 68 549 q 317 736 163 736 q 535 612 472 736 q 567 486 567 549 q 554 473 567 473 q 541 486 541 473 q 512 602 541 545 q 317 709 456 709 q 132 617 190 709 q 94 494 98 563 l 560 261 q 567 250 567 258 q 535 124 567 187 q 317 0 472 0 z "},"t":{"ha":385,"x_min":68,"x_max":331,"o":"m 331 13 q 317 0 331 0 q 192 33 255 0 q 68 250 68 96 l 68 960 q 81 972 68 972 q 94 960 94 972 l 94 736 l 317 736 q 331 723 331 736 q 317 710 331 710 l 94 710 l 94 250 q 203 56 94 111 q 317 26 258 26 q 331 13 331 26 z "},"u":{"ha":621,"x_min":68,"x_max":567,"o":"m 554 0 q 541 13 541 0 l 541 136 q 317 0 480 0 q 100 124 163 0 q 68 250 68 187 l 68 723 q 81 736 68 736 q 94 723 94 736 l 94 250 q 123 134 94 191 q 317 26 179 26 q 512 134 456 26 q 541 250 541 191 l 541 723 q 554 736 541 736 q 567 723 567 736 l 567 13 q 554 0 567 0 z "},"v":{"ha":627,"x_min":71,"x_max":576,"o":"m 323 0 q 311 9 314 0 l 75 718 q 83 734 71 730 q 100 726 96 739 l 323 55 l 547 726 q 564 734 551 739 q 572 718 576 730 l 336 9 q 323 0 333 0 z "},"w":{"ha":1094,"x_min":64,"x_max":1043,"o":"m 790 0 q 778 9 781 0 l 554 680 l 330 9 q 317 0 327 0 q 305 9 308 0 l 68 718 q 77 734 64 730 q 94 726 90 739 l 317 54 l 541 726 q 554 735 545 735 q 566 726 564 735 l 790 54 l 1014 726 q 1031 734 1019 739 q 1039 718 1043 730 l 803 9 q 790 0 800 0 z "},"x":{"ha":623,"x_min":64,"x_max":573,"o":"m 566 20 q 562 2 573 9 q 555 0 559 0 q 544 6 547 0 l 318 344 l 93 6 q 82 0 89 0 q 75 2 78 0 q 71 20 64 9 l 302 368 l 71 715 q 69 724 68 719 q 75 733 71 730 q 93 729 85 741 l 318 391 l 544 729 q 562 733 551 741 q 568 724 566 730 q 566 715 568 719 l 334 368 l 566 20 z "},"y":{"ha":622,"x_min":64,"x_max":572,"o":"m 329 243 l 93 -229 q 81 -236 90 -236 q 75 -235 78 -236 q 70 -217 64 -229 l 303 250 l 70 716 q 75 734 64 728 q 93 728 87 740 l 318 279 l 543 728 q 560 734 548 740 q 566 716 572 728 l 329 243 z "},"z":{"ha":622,"x_min":66,"x_max":570,"o":"m 81 0 q 69 7 73 0 q 70 20 66 14 l 530 709 l 81 709 q 68 723 68 709 q 81 736 68 736 l 554 736 q 566 729 562 736 q 565 715 570 722 l 106 26 l 554 26 q 568 13 568 26 q 554 0 568 0 l 81 0 z "},"{":{"ha":621,"x_min":68,"x_max":568,"o":"m 554 0 q 429 33 492 0 q 304 250 304 95 q 196 444 304 388 q 81 473 140 473 l 81 473 q 68 486 68 473 q 81 500 68 499 l 81 500 q 196 528 140 500 q 304 723 304 585 q 429 941 304 878 q 554 972 492 972 q 568 960 567 972 q 554 947 568 947 q 439 918 495 946 q 331 723 331 861 q 159 486 331 538 q 272 418 229 465 q 331 250 331 355 q 439 56 331 111 q 554 26 495 26 q 568 13 568 26 q 554 0 567 0 z "},"|":{"ha":149,"x_min":68,"x_max":94,"o":"m 81 -236 q 68 -223 68 -236 l 68 1196 q 81 1209 68 1209 q 94 1196 94 1209 l 94 -223 q 81 -236 94 -236 z "},"}":{"ha":621,"x_min":68,"x_max":566,"o":"m 81 0 q 68 13 68 0 q 81 26 68 26 q 196 56 140 26 q 304 250 304 111 q 362 418 304 355 q 475 486 405 465 q 304 723 304 538 q 196 918 304 861 q 81 947 140 946 q 68 960 68 947 q 81 972 68 972 q 206 941 143 972 q 330 723 330 878 q 438 528 330 585 q 553 500 494 500 l 553 500 q 566 486 566 499 q 553 473 566 473 l 553 473 q 438 444 494 473 q 330 250 330 388 q 206 33 330 95 q 81 0 143 0 z "},"~":{"ha":734,"x_min":68,"x_max":680,"o":"m 522 326 q 386 404 425 326 q 366 483 366 444 q 347 555 366 520 q 225 624 312 624 q 102 555 138 624 q 84 483 85 520 q 82 477 84 479 q 76 475 79 475 q 71 477 73 475 q 68 483 68 479 q 88 562 68 522 q 225 640 127 640 q 361 562 322 640 q 382 483 382 522 q 400 411 382 446 q 522 342 435 342 q 645 411 610 342 q 663 483 663 446 q 665 489 663 486 q 671 492 668 492 l 671 492 q 677 489 675 492 q 680 483 680 486 q 659 404 680 444 q 522 326 620 326 z "},"¡":{"ha":456,"x_min":0,"x_max":0,"o":""},"¢":{"ha":772,"x_min":0,"x_max":0,"o":""},"£":{"ha":688,"x_min":52,"x_max":635,"o":"m 507 913 q 399 935 458 935 l 397 935 q 269 866 330 935 q 212 703 212 803 q 212 682 212 692 q 248 497 212 591 l 492 497 l 492 456 l 266 456 q 287 416 275 436 q 311 322 311 373 q 201 68 311 213 l 473 68 q 602 157 562 68 l 635 157 l 565 0 l 77 0 l 78 34 q 205 317 205 195 q 182 414 205 370 q 161 456 170 436 l 52 456 l 52 497 l 143 497 q 104 669 104 594 q 188 904 104 822 q 395 986 271 986 l 398 986 q 524 977 449 986 q 599 954 599 967 l 599 844 l 559 844 q 507 913 556 886 z "},"¤":{"ha":688,"x_min":83,"x_max":604,"o":"m 237 380 q 304 341 265 353 q 344 336 324 336 q 383 341 363 336 q 450 380 422 353 q 489 447 477 408 q 495 486 495 467 q 489 526 495 506 q 450 593 477 565 q 382 631 422 620 q 343 637 363 637 q 304 631 323 637 q 237 593 264 619 q 199 526 211 566 q 193 486 193 506 q 199 448 193 467 q 237 380 210 408 m 163 612 l 83 692 l 137 747 l 217 667 q 284 699 247 688 q 345 708 314 708 q 401 700 372 708 q 470 667 439 688 l 550 747 l 604 692 l 525 613 q 557 544 546 582 q 566 486 566 515 q 557 429 566 458 q 525 359 546 391 l 604 280 l 550 225 l 470 305 q 401 273 439 283 q 344 264 373 264 q 286 273 315 264 q 217 305 248 283 l 137 225 l 83 280 l 163 359 q 130 429 141 391 q 122 486 122 458 q 131 545 122 516 q 163 612 142 583 z "},"¥":{"ha":856,"x_min":5,"x_max":864,"o":"m 371 153 l 370 317 q 369 340 370 330 q 366 362 368 351 l 37 363 q 23 367 28 363 q 18 380 18 372 q 23 393 18 389 q 37 397 27 397 l 354 397 l 272 514 l 39 514 q 23 518 27 514 q 18 530 18 522 q 22 544 18 540 q 37 547 26 547 l 245 547 q 172 652 216 586 q 18 786 83 786 q 9 790 14 786 q 5 798 5 793 q 13 816 5 810 q 35 822 20 822 q 118 817 53 822 q 229 811 183 811 l 289 811 q 317 807 311 811 q 322 789 322 802 q 312 779 322 783 q 286 775 302 775 q 274 777 282 775 q 261 778 265 778 q 236 771 245 778 q 227 754 227 765 q 238 719 227 742 q 269 667 249 696 l 376 517 q 399 481 385 504 q 447 433 427 433 q 458 437 453 433 q 468 447 463 440 l 656 715 q 665 733 661 724 q 668 750 668 743 q 661 768 668 762 q 636 778 654 774 q 608 781 626 779 q 576 798 576 783 q 582 813 576 808 q 599 818 587 818 q 609 817 601 818 q 682 812 647 812 l 777 812 q 821 813 797 812 q 846 814 844 814 q 858 811 853 814 q 864 803 863 808 q 838 780 864 784 q 820 777 826 778 q 720 697 777 766 q 712 687 715 691 l 597 547 l 817 547 q 833 543 827 547 q 839 532 839 539 q 835 518 839 522 q 819 514 831 514 l 571 514 q 506 438 540 475 q 470 397 471 400 l 817 397 q 834 394 829 397 q 839 382 839 390 q 834 368 839 372 q 819 363 829 363 l 460 363 q 459 342 460 355 q 458 322 458 329 l 460 176 q 464 75 460 99 q 477 45 467 50 q 550 32 498 33 q 603 11 603 31 q 596 -3 603 3 q 579 -8 589 -8 q 555 -5 578 -8 q 511 -3 532 -3 q 370 -5 450 -3 q 273 -8 290 -8 q 246 -5 252 -8 q 240 5 240 -3 q 245 18 240 14 q 271 26 251 22 q 288 30 277 28 q 350 52 338 41 q 366 83 361 60 q 371 153 371 106 z "},"¦":{"ha":688,"x_min":290,"x_max":398,"o":"m 290 252 l 398 252 l 398 -283 l 290 -283 l 290 252 m 290 1070 l 398 1070 l 398 535 l 290 535 l 290 1070 z "},"§":{"ha":688,"x_min":115,"x_max":572,"o":"m 370 218 q 435 254 408 229 q 485 366 485 298 q 484 373 485 370 l 483 373 q 480 391 482 382 q 404 477 465 433 q 318 497 363 497 q 233 467 265 497 q 201 387 201 437 q 370 218 201 304 m 316 -235 q 441 -188 393 -231 q 490 -76 490 -144 q 276 111 490 9 q 157 204 193 155 q 121 324 121 254 q 182 485 121 425 q 297 541 227 529 l 270 553 q 151 646 186 597 q 115 766 115 696 q 176 927 115 867 q 322 985 231 981 q 334 986 328 986 l 336 986 q 446 975 380 986 q 512 947 512 964 l 512 815 l 477 815 q 423 905 474 870 q 322 939 376 937 l 312 939 q 227 909 259 939 q 195 829 195 879 q 390 647 195 740 q 529 550 491 602 q 566 422 566 498 q 498 231 566 307 q 431 188 466 205 q 535 108 504 150 q 572 -19 572 56 q 504 -211 572 -135 q 316 -282 420 -280 l 316 -281 q 307 -282 312 -282 l 305 -282 q 195 -271 260 -282 q 129 -243 129 -260 l 129 -111 l 163 -111 q 218 -201 167 -166 q 316 -235 264 -231 z "},"¨":{"ha":694,"x_min":142,"x_max":536,"o":"m 151 874 l 199 923 q 216 931 208 931 q 235 922 224 931 l 281 872 q 288 855 288 863 q 280 837 288 846 l 233 786 q 216 774 222 774 q 199 783 207 774 l 148 841 q 142 857 142 849 q 151 874 142 865 m 399 874 l 447 923 q 464 931 456 931 q 482 922 471 931 l 529 872 q 536 855 536 863 q 528 838 536 846 l 481 786 q 464 774 469 774 q 447 783 454 774 l 395 842 q 389 857 389 849 q 399 874 389 865 z "},"©":{"ha":1135,"x_min":68,"x_max":1067,"o":"m 570 987 q 760 949 668 987 q 922 840 851 911 q 1029 679 991 772 q 1067 487 1067 586 q 1029 296 1067 387 q 919 133 991 204 q 757 25 848 62 q 565 -12 666 -12 q 376 25 466 -12 q 215 134 287 63 q 105 295 143 205 q 68 487 68 386 q 105 679 68 587 q 214 840 143 770 q 375 949 283 911 q 570 987 468 987 m 242 812 q 143 663 178 747 q 109 487 109 579 q 143 311 109 394 q 243 163 178 229 q 392 63 310 98 q 566 28 474 28 q 742 63 659 28 q 890 161 825 97 q 991 312 956 228 q 1027 487 1027 395 q 991 663 1027 578 q 893 812 956 748 q 744 912 828 877 q 569 947 660 947 q 391 912 476 947 q 242 812 307 877 m 587 151 q 408 197 490 151 q 281 323 325 243 q 238 488 238 402 q 282 653 238 573 q 410 778 327 733 q 582 823 492 823 q 633 819 608 823 q 684 805 658 814 q 690 804 688 804 q 708 825 703 804 l 736 825 l 785 690 l 755 690 q 667 774 720 754 q 567 792 618 792 l 557 792 q 444 744 498 787 q 361 624 389 701 q 339 499 339 563 q 340 465 339 482 q 388 313 348 383 q 489 210 427 243 q 602 182 538 183 q 733 220 686 182 q 781 305 781 258 l 817 305 l 817 237 q 751 179 817 206 q 587 151 686 151 z "},"ª":{"ha":439,"x_min":0,"x_max":0,"o":""},"«":{"ha":640,"x_min":118,"x_max":572,"o":"m 118 325 l 350 530 l 359 530 l 359 505 l 220 325 l 359 144 l 359 119 l 350 119 l 118 325 m 330 325 l 562 530 l 572 530 l 572 505 l 433 325 l 572 144 l 572 119 l 562 119 l 330 325 z "},"¬":{"ha":688,"x_min":59,"x_max":629,"o":"m 59 520 l 629 520 l 629 187 l 628 186 l 562 186 l 562 452 l 59 452 l 59 520 z "},"®":{"ha":1135,"x_min":68,"x_max":1067,"o":"m 509 745 l 509 492 l 511 486 q 549 431 527 448 q 587 416 569 416 l 591 416 q 633 443 612 419 q 665 509 654 466 q 673 578 673 543 q 673 597 673 587 q 654 681 670 642 q 615 733 637 720 q 572 745 593 745 l 509 745 m 667 391 l 723 312 q 825 216 791 216 l 848 216 l 848 182 l 613 182 l 613 216 l 644 216 q 664 231 664 216 q 617 309 664 251 l 566 378 q 509 406 538 378 l 509 298 q 534 216 509 216 l 570 216 l 570 182 l 355 182 l 355 216 l 385 216 q 410 298 410 216 l 410 663 q 385 745 410 745 l 355 745 l 355 793 l 597 793 q 682 764 640 792 q 744 687 722 736 q 766 584 766 637 q 745 482 766 531 q 667 391 723 433 m 570 987 q 760 949 668 987 q 922 840 851 911 q 1029 679 991 772 q 1067 487 1067 586 q 1029 296 1067 387 q 919 133 991 204 q 757 25 848 62 q 565 -12 666 -12 q 376 25 466 -12 q 215 134 287 63 q 105 295 143 205 q 68 487 68 386 q 105 679 68 587 q 214 840 143 770 q 375 949 283 911 q 570 987 468 987 m 242 812 q 143 663 178 747 q 109 487 109 579 q 143 311 109 394 q 243 163 178 229 q 392 63 310 98 q 566 28 474 28 q 742 63 659 28 q 890 161 825 97 q 991 312 956 228 q 1027 487 1027 395 q 991 663 1027 578 q 893 812 956 748 q 744 912 828 877 q 569 947 660 947 q 391 912 476 947 q 242 812 307 877 z "},"¯":{"ha":454,"x_min":0,"x_max":0,"o":""},"°":{"ha":457,"x_min":41,"x_max":418,"o":"m 230 930 q 130 889 172 930 q 88 789 88 848 q 130 689 88 730 q 230 648 171 648 q 330 689 289 648 q 370 789 370 730 q 329 889 370 848 q 230 930 288 930 m 230 978 q 363 923 308 978 q 418 789 418 867 q 362 656 418 712 q 229 601 307 601 q 95 656 149 601 q 41 789 41 711 q 96 923 41 868 q 230 978 151 978 z "},"±":{"ha":688,"x_min":0,"x_max":0,"o":""},"²":{"ha":688,"x_min":0,"x_max":0,"o":""},"³":{"ha":688,"x_min":0,"x_max":0,"o":""},"´":{"ha":694,"x_min":214,"x_max":527,"o":"m 412 932 q 449 964 435 956 q 477 972 463 972 q 513 959 499 972 q 527 924 527 945 q 516 896 527 909 q 485 869 506 882 l 261 731 l 214 731 l 412 932 z "},"µ":{"ha":800,"x_min":0,"x_max":0,"o":""},"¶":{"ha":694,"x_min":63,"x_max":630,"o":"m 630 973 l 630 926 l 544 926 l 544 0 l 488 0 l 488 926 l 376 926 l 376 0 l 319 0 l 319 500 q 132 570 201 506 q 63 736 63 634 q 136 908 63 843 q 330 973 209 973 l 630 973 z "},"·":{"ha":157,"x_min":68,"x_max":103,"o":"m 103 486 q 85 469 103 469 q 68 486 68 469 q 85 504 68 504 q 103 486 103 504 z "},"¸":{"ha":694,"x_min":244,"x_max":521,"o":"m 244 -197 q 347 -232 302 -232 q 411 -217 392 -232 q 431 -172 431 -203 q 397 -129 431 -142 q 328 -118 370 -118 q 305 -119 317 -118 l 338 0 l 380 0 l 355 -71 q 397 -67 377 -68 q 488 -95 456 -67 q 521 -172 521 -122 q 481 -253 521 -223 q 372 -283 441 -283 q 244 -262 298 -283 l 244 -197 z "},"¹":{"ha":688,"x_min":0,"x_max":0,"o":""},"º":{"ha":487,"x_min":0,"x_max":0,"o":""},"»":{"ha":640,"x_min":68,"x_max":522,"o":"m 78 119 l 68 119 l 68 144 l 208 325 l 68 505 l 68 530 l 78 530 l 310 325 l 78 119 m 290 119 l 281 119 l 281 144 l 420 325 l 281 505 l 281 530 l 290 530 l 522 325 l 290 119 z "},"¼":{"ha":1158,"x_min":0,"x_max":0,"o":""},"½":{"ha":1332,"x_min":0,"x_max":0,"o":""},"¾":{"ha":1158,"x_min":0,"x_max":0,"o":""},"¿":{"ha":507,"x_min":0,"x_max":0,"o":""},"À":{"ha":1044,"x_min":0,"x_max":0,"o":""},"Á":{"ha":1044,"x_min":0,"x_max":0,"o":""},"Â":{"ha":1044,"x_min":0,"x_max":0,"o":""},"Ã":{"ha":1044,"x_min":0,"x_max":0,"o":""},"Ä":{"ha":1044,"x_min":0,"x_max":0,"o":""},"Å":{"ha":1044,"x_min":0,"x_max":0,"o":""},"Æ":{"ha":1436,"x_min":0,"x_max":0,"o":""},"Ç":{"ha":949,"x_min":0,"x_max":0,"o":""},"È":{"ha":781,"x_min":0,"x_max":0,"o":""},"É":{"ha":781,"x_min":0,"x_max":0,"o":""},"Ê":{"ha":781,"x_min":0,"x_max":0,"o":""},"Ë":{"ha":781,"x_min":0,"x_max":0,"o":""},"Ì":{"ha":446,"x_min":0,"x_max":0,"o":""},"Í":{"ha":446,"x_min":0,"x_max":0,"o":""},"Î":{"ha":446,"x_min":0,"x_max":0,"o":""},"Ï":{"ha":446,"x_min":0,"x_max":0,"o":""},"Ð":{"ha":1029,"x_min":0,"x_max":0,"o":""},"Ñ":{"ha":1054,"x_min":0,"x_max":0,"o":""},"Ò":{"ha":1095,"x_min":0,"x_max":0,"o":""},"Ó":{"ha":1095,"x_min":0,"x_max":0,"o":""},"Ô":{"ha":1095,"x_min":0,"x_max":0,"o":""},"Õ":{"ha":1095,"x_min":0,"x_max":0,"o":""},"Ö":{"ha":1095,"x_min":0,"x_max":0,"o":""},"×":{"ha":688,"x_min":109,"x_max":578,"o":"m 344 419 l 176 252 l 109 319 l 277 486 l 109 654 l 176 721 l 344 553 l 512 721 l 578 654 l 411 486 l 578 319 l 511 252 l 344 419 z "},"Ø":{"ha":1095,"x_min":0,"x_max":0,"o":""},"Ù":{"ha":1018,"x_min":0,"x_max":0,"o":""},"Ú":{"ha":1018,"x_min":0,"x_max":0,"o":""},"Û":{"ha":1018,"x_min":0,"x_max":0,"o":""},"Ü":{"ha":1018,"x_min":0,"x_max":0,"o":""},"Ý":{"ha":836,"x_min":0,"x_max":0,"o":""},"Þ":{"ha":760,"x_min":0,"x_max":0,"o":""},"ß":{"ha":848,"x_min":0,"x_max":0,"o":""},"à":{"ha":625,"x_min":0,"x_max":0,"o":""},"á":{"ha":625,"x_min":0,"x_max":0,"o":""},"â":{"ha":625,"x_min":0,"x_max":0,"o":""},"ã":{"ha":625,"x_min":0,"x_max":0,"o":""},"ä":{"ha":625,"x_min":0,"x_max":0,"o":""},"å":{"ha":625,"x_min":0,"x_max":0,"o":""},"æ":{"ha":986,"x_min":0,"x_max":0,"o":""},"ç":{"ha":614,"x_min":0,"x_max":0,"o":""},"è":{"ha":616,"x_min":0,"x_max":0,"o":""},"é":{"ha":616,"x_min":0,"x_max":0,"o":""},"ê":{"ha":616,"x_min":0,"x_max":0,"o":""},"ë":{"ha":616,"x_min":0,"x_max":0,"o":""},"ì":{"ha":349,"x_min":0,"x_max":0,"o":""},"í":{"ha":349,"x_min":0,"x_max":0,"o":""},"î":{"ha":349,"x_min":0,"x_max":0,"o":""},"ï":{"ha":349,"x_min":0,"x_max":0,"o":""},"ð":{"ha":772,"x_min":0,"x_max":0,"o":""},"ñ":{"ha":751,"x_min":0,"x_max":0,"o":""},"ò":{"ha":685,"x_min":0,"x_max":0,"o":""},"ó":{"ha":685,"x_min":0,"x_max":0,"o":""},"ô":{"ha":685,"x_min":0,"x_max":0,"o":""},"õ":{"ha":685,"x_min":0,"x_max":0,"o":""},"ö":{"ha":685,"x_min":0,"x_max":0,"o":""},"÷":{"ha":688,"x_min":59,"x_max":629,"o":"m 59 439 l 59 534 l 628 534 l 629 533 l 629 439 l 59 439 m 270 277 l 326 334 q 345 343 336 343 q 366 332 354 343 l 420 274 q 429 254 429 263 q 419 233 429 244 l 365 174 q 345 160 351 160 q 326 170 334 160 l 266 238 q 259 256 259 247 q 270 277 259 266 m 270 747 l 326 804 q 345 813 336 813 q 366 802 354 813 l 420 744 q 429 724 429 733 q 419 703 429 714 l 365 644 q 345 630 351 630 q 326 640 334 630 l 266 708 q 259 726 259 717 q 270 747 259 736 z "},"ø":{"ha":685,"x_min":0,"x_max":0,"o":""},"ù":{"ha":718,"x_min":0,"x_max":0,"o":""},"ú":{"ha":718,"x_min":0,"x_max":0,"o":""},"û":{"ha":718,"x_min":0,"x_max":0,"o":""},"ü":{"ha":718,"x_min":0,"x_max":0,"o":""},"ý":{"ha":589,"x_min":0,"x_max":0,"o":""},"þ":{"ha":685,"x_min":0,"x_max":0,"o":""},"ÿ":{"ha":589,"x_min":0,"x_max":0,"o":""},"ı":{"ha":349,"x_min":13,"x_max":321,"o":"m 222 151 q 290 34 222 34 l 321 34 l 321 0 l 22 0 l 22 34 l 53 34 q 121 151 121 34 l 121 444 q 45 496 121 496 l 13 496 l 13 526 q 190 650 163 573 l 222 650 l 222 151 z "},"ˆ":{"ha":694,"x_min":150,"x_max":545,"o":"m 150 732 l 307 972 l 387 972 l 545 732 l 505 732 l 347 878 l 189 732 l 150 732 z "},"ˇ":{"ha":694,"x_min":150,"x_max":545,"o":"m 150 972 l 189 972 l 347 827 l 505 972 l 545 972 l 387 731 l 307 731 l 150 972 z "},"ˉ":{"ha":694,"x_min":172,"x_max":522,"o":"m 172 810 l 172 895 l 522 895 l 522 810 l 172 810 z "},"˘":{"ha":694,"x_min":149,"x_max":545,"o":"m 149 915 l 183 915 q 234 842 195 865 q 347 819 273 819 q 460 842 421 819 q 510 915 498 865 l 545 915 q 481 778 531 825 q 347 732 431 732 q 214 779 264 732 q 149 915 163 825 z "},"˙":{"ha":694,"x_min":277,"x_max":422,"o":"m 286 874 l 333 923 q 342 929 337 927 q 351 931 347 931 q 360 929 355 931 q 368 923 364 927 l 416 871 q 421 865 420 869 q 422 855 422 861 q 420 845 422 849 q 415 837 419 841 l 367 785 q 356 776 359 778 q 351 774 353 774 q 340 776 345 774 q 333 782 336 778 l 282 841 q 278 847 279 844 q 277 857 277 851 q 279 865 277 861 q 286 874 281 869 z "},"˚":{"ha":694,"x_min":227,"x_max":468,"o":"m 279 852 q 298 804 279 824 q 347 785 318 785 q 395 804 375 785 q 414 852 414 824 q 394 900 414 880 q 347 920 374 920 q 299 900 319 920 q 279 852 279 880 m 227 852 q 262 938 227 903 q 347 972 296 972 q 433 938 398 972 q 468 852 468 903 q 433 767 468 802 q 347 732 398 732 q 262 767 296 732 q 227 852 227 802 z "},"˛":{"ha":694,"x_min":250,"x_max":500,"o":"m 434 0 q 359 -81 386 -42 q 332 -157 332 -120 q 351 -208 332 -189 q 400 -227 369 -227 q 447 -217 427 -227 q 481 -184 467 -206 l 500 -195 q 438 -260 475 -237 q 357 -283 401 -283 q 280 -259 310 -283 q 250 -198 250 -235 q 291 -92 250 -146 q 401 0 332 -37 l 434 0 z "},"˜":{"ha":694,"x_min":159,"x_max":548,"o":"m 548 937 q 502 833 534 867 q 416 798 469 798 l 413 798 q 336 814 379 798 q 259 830 292 830 q 218 816 233 830 q 195 768 203 802 l 159 768 q 205 875 172 840 q 292 911 238 911 q 369 895 323 910 q 445 879 412 879 l 448 879 q 487 892 472 879 q 511 937 502 906 l 548 937 z "},"˝":{"ha":694,"x_min":147,"x_max":547,"o":"m 147 732 l 245 917 q 276 960 261 947 q 307 972 290 972 q 340 959 326 972 q 353 927 353 945 q 346 903 353 916 q 326 876 339 890 l 186 732 l 147 732 m 340 732 l 438 917 q 469 960 454 947 q 500 972 484 972 q 533 959 519 972 q 547 927 547 945 q 539 903 547 916 q 519 876 532 890 l 380 732 l 340 732 z "},"–":{"ha":751,"x_min":38,"x_max":713,"o":"m 38 284 l 38 366 l 713 366 l 713 284 l 38 284 z "},"—":{"ha":1389,"x_min":0,"x_max":1389,"o":"m 0 284 l 0 366 l 1389 366 l 1389 284 l 0 284 z "},"‘":{"ha":378,"x_min":126,"x_max":297,"o":"m 216 689 q 156 733 186 689 q 126 836 126 778 q 174 990 126 910 q 269 1069 222 1069 l 269 1040 q 210 911 219 1011 q 297 802 210 831 l 297 774 l 216 689 z "},"’":{"ha":378,"x_min":81,"x_max":252,"o":"m 161 1069 q 221 1025 191 1069 q 252 922 252 981 q 203 769 252 848 q 109 689 155 689 l 109 718 q 168 847 159 747 q 81 956 168 928 l 81 985 l 161 1069 z "},"‚":{"ha":378,"x_min":81,"x_max":252,"o":"m 161 191 q 221 146 191 191 q 252 43 252 102 q 203 -110 252 -31 q 109 -190 155 -190 l 109 -161 q 168 -32 159 -132 q 81 77 168 49 l 81 106 l 161 191 z "},"“":{"ha":617,"x_min":126,"x_max":536,"o":"m 216 689 q 156 733 186 689 q 126 836 126 778 q 174 990 126 910 q 269 1069 222 1069 l 269 1040 q 210 911 219 1011 q 297 802 210 831 l 297 774 l 216 689 m 456 689 q 396 733 426 689 q 366 836 366 778 q 414 990 366 910 q 508 1069 462 1069 l 508 1040 q 449 911 458 1011 q 536 802 449 831 l 536 774 l 456 689 z "},"”":{"ha":617,"x_min":81,"x_max":491,"o":"m 161 1069 q 221 1025 191 1069 q 252 922 252 981 q 203 769 252 848 q 109 689 155 689 l 109 718 q 168 847 159 747 q 81 956 168 928 l 81 985 l 161 1069 m 401 1069 q 461 1025 431 1069 q 491 922 491 981 q 443 769 491 848 q 349 689 395 689 l 349 718 q 408 847 398 747 q 320 956 408 928 l 320 985 l 401 1069 z "},"„":{"ha":617,"x_min":81,"x_max":491,"o":"m 161 191 q 221 146 191 191 q 252 43 252 102 q 203 -110 252 -31 q 109 -190 155 -190 l 109 -161 q 168 -32 159 -132 q 81 77 168 49 l 81 106 l 161 191 m 401 191 q 461 146 431 191 q 491 43 491 102 q 443 -110 491 -31 q 349 -190 395 -190 l 349 -161 q 408 -32 398 -132 q 320 77 408 49 l 320 106 l 401 191 z "},"†":{"ha":688,"x_min":48,"x_max":640,"o":"m 330 693 q 293 814 324 759 q 254 901 254 882 q 279 955 254 935 q 344 975 303 975 q 408 956 382 975 q 433 907 433 937 q 396 814 433 886 q 359 693 365 757 q 479 730 424 699 q 566 768 547 768 q 620 744 600 768 q 640 679 640 720 q 622 615 640 640 q 572 589 603 589 q 480 627 551 589 q 359 665 422 658 q 433 477 364 546 q 357 -183 361 165 l 332 -183 q 254 477 328 165 q 330 665 323 546 q 209 628 264 659 q 121 589 140 589 q 68 614 88 589 q 48 679 48 638 q 67 743 48 718 q 115 768 85 768 q 208 730 137 768 q 330 693 266 699 z "},"‡":{"ha":688,"x_min":47,"x_max":640,"o":"m 358 126 q 479 165 422 134 q 572 202 550 202 q 621 177 602 202 q 640 113 640 151 q 619 47 640 72 q 566 23 599 23 q 478 62 547 23 q 358 98 423 93 q 395 -23 364 35 q 433 -116 433 -94 q 407 -164 433 -146 q 343 -183 382 -183 q 278 -163 302 -183 q 254 -110 254 -143 q 292 -22 254 -91 q 329 98 323 33 q 208 61 265 92 q 115 23 136 23 q 66 48 85 23 q 47 113 47 74 q 67 178 47 153 q 121 202 87 202 q 208 163 140 202 q 329 126 264 133 q 254 396 323 279 q 329 665 323 512 q 208 628 264 659 q 121 589 140 589 q 67 614 87 589 q 47 679 47 638 q 66 743 47 718 q 115 768 85 768 q 208 730 136 768 q 329 693 265 699 q 292 814 323 759 q 254 901 254 882 q 278 955 254 935 q 343 975 302 975 q 407 956 382 975 q 433 907 433 937 q 395 814 433 886 q 358 693 364 757 q 478 730 423 699 q 566 768 547 768 q 619 744 599 768 q 640 679 640 720 q 621 615 640 640 q 572 589 602 589 q 479 627 550 589 q 358 665 422 658 q 433 396 363 512 q 358 126 363 279 z "},"•":{"ha":694,"x_min":146,"x_max":548,"o":"m 146 487 q 205 629 146 570 q 348 687 264 687 q 489 628 431 687 q 548 487 548 570 q 489 345 548 404 q 347 286 429 286 q 205 345 263 286 q 146 487 146 404 z "},"…":{"ha":1389,"x_min":87,"x_max":1183,"o":"m 98 113 l 154 170 q 174 180 164 180 q 195 169 182 180 l 249 111 q 257 91 257 100 q 248 70 257 81 l 193 10 q 174 -3 180 -3 q 154 6 163 -3 l 94 75 q 87 92 87 83 q 98 113 87 102 m 562 113 l 617 170 q 637 180 627 180 q 658 169 646 180 l 712 111 q 720 91 720 100 q 711 70 720 81 l 656 10 q 637 -3 643 -3 q 617 6 626 -3 l 557 75 q 551 92 551 83 q 562 113 551 102 m 1025 113 l 1080 170 q 1100 180 1090 180 q 1121 169 1109 180 l 1175 111 q 1183 91 1183 100 q 1174 70 1183 81 l 1120 10 q 1100 -3 1106 -3 q 1080 6 1089 -3 l 1021 75 q 1014 92 1014 83 q 1025 113 1014 102 z "},"‹":{"ha":428,"x_min":118,"x_max":359,"o":"m 118 325 l 350 530 l 359 530 l 359 505 l 220 325 l 359 144 l 359 119 l 350 119 l 118 325 z "},"›":{"ha":428,"x_min":68,"x_max":310,"o":"m 78 119 l 68 119 l 68 144 l 208 325 l 68 505 l 68 530 l 78 530 l 310 325 l 78 119 z "},"⁄":{"ha":232,"x_min":-232,"x_max":463,"o":"m -232 -20 l 406 971 l 463 971 l -174 -20 l -232 -20 z "},"₣":{"ha":688,"x_min":33,"x_max":723,"o":"m 168 242 l 36 242 l 36 283 l 168 283 l 168 779 q 98 939 168 939 l 33 939 l 33 972 l 653 972 l 723 816 l 690 816 q 561 939 650 939 l 347 939 q 277 779 277 939 l 277 541 l 522 541 q 590 583 590 541 l 590 623 l 624 623 l 624 391 l 590 391 l 590 431 q 522 473 590 473 l 277 473 l 277 283 l 409 283 l 409 242 l 277 242 l 277 193 q 347 34 277 34 l 412 34 l 412 0 l 33 0 l 33 34 l 98 34 q 168 193 168 34 l 168 242 z "},"₤":{"ha":688,"x_min":52,"x_max":635,"o":"m 507 913 q 399 935 458 935 l 397 935 q 269 866 330 935 q 212 703 212 803 q 212 682 212 692 q 235 538 212 610 l 492 538 l 492 497 l 248 497 q 266 456 256 477 l 505 456 l 505 416 l 287 416 q 311 322 311 373 q 201 68 311 213 l 473 68 q 602 157 562 68 l 635 157 l 565 0 l 77 0 l 78 34 q 205 317 205 195 q 182 414 205 370 l 180 416 l 64 416 l 64 456 l 161 456 q 143 497 151 477 l 52 497 l 52 538 l 128 538 q 104 669 104 610 q 188 904 104 822 q 398 986 271 986 q 524 977 449 986 q 599 954 599 967 l 599 844 l 559 844 q 507 913 556 886 z "},"₧":{"ha":1375,"x_min":33,"x_max":1334,"o":"m 277 939 l 277 490 q 282 478 279 484 q 355 374 310 409 q 434 345 394 345 q 447 345 441 345 q 533 396 493 351 q 592 516 573 441 q 607 637 607 575 q 606 669 607 654 q 573 818 602 748 q 499 916 544 887 q 423 939 461 939 q 409 939 416 939 l 277 939 m 1015 616 l 893 616 l 893 151 q 916 71 893 96 q 971 45 935 50 l 923 176 l 956 176 q 1034 58 994 88 q 1120 28 1072 28 l 1124 28 q 1227 64 1187 28 q 1267 156 1267 100 q 1091 309 1267 225 q 994 385 1023 345 q 964 484 964 426 q 1014 615 964 566 l 1015 616 m 705 617 q 672 486 700 549 q 576 365 638 408 q 448 322 515 322 q 318 366 380 322 q 277 400 296 380 l 277 193 q 347 34 277 34 l 412 34 l 412 0 l 33 0 l 33 34 l 98 34 q 168 193 168 34 l 168 779 q 98 939 168 939 l 33 939 l 33 972 l 452 972 q 574 930 514 971 q 671 810 636 888 q 706 650 705 734 l 713 650 q 859 890 859 650 l 893 890 l 893 650 l 1069 650 q 1143 663 1097 663 l 1145 663 q 1235 654 1181 663 q 1289 631 1289 645 l 1289 524 l 1261 524 q 1216 597 1258 568 q 1126 625 1175 625 q 1056 601 1082 625 q 1030 535 1030 576 q 1190 386 1030 462 q 1303 306 1272 349 q 1334 202 1334 264 q 1278 45 1334 107 q 1123 -13 1208 -12 q 1052 -5 1084 -13 q 1014 -1 1033 -1 q 989 -3 1002 -1 q 949 -7 970 -7 q 832 32 865 -7 q 793 151 798 71 l 792 151 l 792 617 l 705 617 z "},"€":{"ha":688,"x_min":-30,"x_max":724,"o":"m 95 252 q 43 443 53 344 l -30 443 l -18 484 l 41 484 l 41 503 q 41 524 41 514 l -7 524 l 5 565 l 44 565 q 96 755 54 663 q 249 941 151 876 q 451 1006 347 1006 q 510 1001 480 1006 q 566 981 537 994 q 576 977 571 977 q 600 1008 590 977 l 627 1008 l 684 817 l 657 817 q 564 937 624 907 q 509 959 534 952 l 509 961 q 440 972 475 972 q 417 970 429 972 q 264 893 336 962 q 157 708 192 825 q 131 565 136 637 l 610 565 l 598 524 l 129 524 q 130 484 129 504 l 587 484 l 576 443 l 134 443 q 190 241 145 336 q 321 81 240 134 q 467 34 390 35 q 641 96 593 36 q 691 221 691 157 l 724 221 l 724 124 q 648 38 724 77 q 467 0 577 1 q 247 66 345 0 q 95 252 149 133 z "},"№":{"ha":1540,"x_min":0,"x_max":0,"o":""},"™":{"ha":1015,"x_min":0,"x_max":0,"o":""},"∂":{"ha":688,"x_min":52,"x_max":635,"o":"m 157 364 q 161 311 157 336 q 202 155 170 228 q 283 43 235 81 q 370 7 326 7 q 378 7 374 7 q 465 55 426 11 q 519 177 504 100 q 530 278 530 227 q 527 336 530 307 q 485 493 517 418 q 404 605 452 567 q 317 639 359 639 l 309 639 q 224 592 263 635 q 168 471 184 548 q 157 364 157 414 m 635 323 q 597 153 635 234 q 489 28 559 73 q 344 -17 420 -17 q 198 28 268 -17 q 91 153 129 73 q 52 323 52 234 q 92 494 52 412 q 201 619 131 575 q 344 663 271 663 q 488 619 418 663 q 524 591 507 607 q 366 847 467 751 q 144 952 264 943 l 144 989 q 494 796 352 989 q 635 323 635 603 z "},"∆":{"ha":733,"x_min":4,"x_max":728,"o":"m 349 810 l 73 83 l 616 83 l 349 810 m 371 972 l 728 0 l 4 0 l 371 972 z "},"∏":{"ha":1027,"x_min":33,"x_max":995,"o":"m 347 939 q 277 779 277 939 l 277 -90 q 347 -249 277 -249 l 412 -249 l 412 -283 l 33 -283 l 33 -249 l 98 -249 q 168 -90 168 -249 l 168 779 q 98 939 168 939 l 33 939 l 33 972 l 995 972 l 995 939 l 929 939 q 860 779 860 939 l 860 -90 q 929 -249 860 -249 l 995 -249 l 995 -283 l 615 -283 l 615 -249 l 680 -249 q 750 -90 750 -249 l 750 779 q 680 939 750 939 l 347 939 z "},"∑":{"ha":818,"x_min":81,"x_max":776,"o":"m 718 372 l 184 -248 l 614 -248 q 743 -125 703 -248 l 776 -125 l 706 -282 l 81 -282 l 81 -248 q 153 -212 123 -248 l 603 317 l 153 900 q 81 939 123 939 l 81 972 l 706 972 l 776 815 l 743 815 q 614 939 703 939 l 286 939 l 718 372 z "},"−":{"ha":688,"x_min":59,"x_max":629,"o":"m 59 439 l 59 534 l 628 534 l 629 533 l 629 439 l 59 439 z "},"√":{"ha":688,"x_min":12,"x_max":715,"o":"m 123 0 l 12 243 l 62 267 l 119 142 l 613 1139 l 715 1139 l 715 1098 l 666 1098 l 123 0 z "},"∞":{"ha":688,"x_min":45,"x_max":645,"o":"m 298 512 q 248 602 288 582 q 191 617 216 617 q 175 616 182 617 q 112 586 142 609 q 68 528 83 562 q 54 467 54 497 l 54 462 q 73 401 56 429 q 121 362 90 374 q 163 355 141 355 q 185 357 174 355 q 247 386 217 363 q 298 512 276 409 m 316 466 q 380 362 324 401 q 463 330 427 330 q 477 331 471 330 q 557 366 519 339 q 614 435 595 393 q 632 508 632 471 l 632 515 q 608 589 631 556 q 546 635 585 622 q 494 644 521 644 q 465 642 479 644 q 378 600 419 635 q 316 466 338 564 m 305 561 q 319 608 311 585 q 384 701 342 667 q 471 734 425 734 q 557 701 516 734 q 622 610 599 669 q 645 486 645 551 q 622 363 645 422 q 557 271 599 304 q 471 239 516 239 q 384 272 425 239 q 319 364 342 305 q 305 412 311 388 q 297 384 302 397 q 247 307 279 334 q 180 280 215 280 q 112 308 144 280 q 62 385 79 336 q 45 486 45 434 q 62 587 45 538 q 112 665 79 637 q 180 692 144 692 q 247 665 215 692 q 297 589 279 638 q 305 561 302 575 z "},"∫":{"ha":451,"x_min":-49,"x_max":492,"o":"m -8 -191 q -49 -171 -49 -191 l -49 -63 l -24 -63 q -1 -107 -24 -92 q 42 -121 22 -121 l 43 -121 q 121 -12 98 -121 q 148 203 142 98 l 195 701 l 201 743 q 292 1034 219 904 q 451 1164 366 1164 q 492 1144 492 1164 l 492 1036 l 467 1036 q 444 1080 467 1065 q 401 1095 420 1095 q 322 989 353 1095 q 289 743 292 884 l 239 222 q 151 -62 226 66 q -8 -191 76 -191 z "},"≈":{"ha":688,"x_min":64,"x_max":626,"o":"m 626 714 l 626 608 q 543 542 583 559 q 465 525 503 525 q 344 558 424 525 q 224 591 264 591 q 152 572 190 591 q 64 496 113 553 l 64 602 q 147 669 107 651 q 224 686 187 686 q 348 653 268 686 q 465 619 427 619 q 538 638 500 619 q 626 714 576 657 m 626 478 l 626 372 q 543 306 583 323 q 465 289 503 289 q 344 322 424 289 q 224 355 264 355 q 152 336 190 355 q 64 260 113 317 l 64 366 q 147 433 107 415 q 224 450 187 450 q 348 417 268 450 q 465 383 427 383 q 538 402 500 383 q 626 478 576 421 z "},"≤":{"ha":688,"x_min":59,"x_max":629,"o":"m 629 728 l 205 485 l 629 244 l 629 131 l 59 457 l 59 513 l 629 842 l 629 728 m 59 1 l 59 96 l 628 96 l 629 95 l 629 1 l 59 1 z "},"≥":{"ha":688,"x_min":59,"x_max":629,"o":"m 59 842 l 629 513 l 629 457 l 59 131 l 59 244 l 483 485 l 59 728 l 59 842 m 59 1 l 59 96 l 628 96 l 629 96 l 629 1 l 59 1 z "},"":{"ha":728,"x_min":0,"x_max":0,"o":""},"":{"ha":733,"x_min":0,"x_max":0,"o":""}}}
